<?xml version="1.0" encoding="UTF-8" standalone="no"?> <svg width="48" height="48" viewBox="0 0 48 48" fill="none" xmlns="http://www.w3.org/2000/svg">
<path d="M29.9998 7C30.5302 7 31.0389 6.78929 31.414 6.41421C31.7891 6.03914 31.9998 5.53043 31.9998 5C31.9998 4.46957 31.7891 3.96086 31.414 3.58579C31.0389 3.21071 30.5302 3 29.9998 3H17.9998C17.4693 3 16.9606 3.21071 16.5856 3.58579C16.2105 3.96086 15.9998 4.46957 15.9998 5V5C15.9998 5.53043 16.2105 6.03914 16.5856 6.41421C16.9606 6.78929 17.4693 7 17.9998 7V19.052C17.9996 19.9347 17.7074 20.7926 17.1688 21.492L8.86878 32.268C7.9998 33.3968 7.45186 34.7394 7.28289 36.1539C7.11391 37.5684 7.33015 39.0023 7.90878 40.304V40.304C8.53023 41.7024 9.54412 42.8905 10.8275 43.724C12.1108 44.5576 13.6085 45.0008 15.1388 45H32.8608C34.3908 44.9997 35.888 44.5555 37.1706 43.7213C38.4532 42.887 39.4662 41.6986 40.0868 40.3V40.3C40.6654 38.9983 40.8817 37.5644 40.7127 36.1499C40.5437 34.7354 39.9958 33.3928 39.1268 32.264L30.8268 21.488C30.2904 20.7892 29.9997 19.9329 29.9998 19.052V7Z" fill="#EAEFF0"/>
<path d="M12.9128 40.3C12.3342 38.9983 12.1179 37.5644 12.2869 36.1499C12.4559 34.7354 13.0038 33.3928 13.8728 32.264L21.2998 21.436C21.756 20.7699 22.0001 19.9814 21.9998 19.174V7C21.4693 7 20.9606 6.78929 20.5856 6.41421C20.2105 6.03914 19.9998 5.53043 19.9998 5C19.9998 4.46957 20.2105 3.96086 20.5856 3.58579C20.9606 3.21071 21.4693 3 21.9998 3H17.9998C17.4693 3 16.9606 3.21071 16.5856 3.58579C16.2105 3.96086 15.9998 4.46957 15.9998 5C15.9998 5.53043 16.2105 6.03914 16.5856 6.41421C16.9606 6.78929 17.4693 7 17.9998 7V19.052C17.9996 19.9347 17.7074 20.7926 17.1688 21.492L8.86878 32.268C7.9998 33.3968 7.45186 34.7394 7.28289 36.1539C7.11391 37.5684 7.33015 39.0023 7.90878 40.304V40.304C8.53023 41.7024 9.54412 42.8905 10.8275 43.724C12.1108 44.5576 13.6085 45.0008 15.1388 45H20.1388C18.6087 44.9997 17.1116 44.5555 15.829 43.7213C14.5464 42.887 13.5334 41.6986 12.9128 40.3V40.3Z" fill="#D9E1E2"/>
<path d="M8.87269 32.2682C8.0037 33.397 7.45577 34.7396 7.28679 36.1541C7.11781 37.5686 7.33406 39.0025 7.91269 40.3042V40.3042C8.53386 41.702 9.54713 42.8897 10.8297 43.7232C12.1123 44.5567 13.6091 45.0003 15.1387 45.0002H32.8607C34.3907 45 35.8879 44.5558 37.1705 43.7215C38.4531 42.8873 39.4661 41.6988 40.0867 40.3002V40.3002C40.6653 38.9985 40.8816 37.5646 40.7126 36.1501C40.5436 34.7356 39.9957 33.393 39.1267 32.2642L32.7697 24.0112H15.2297L8.87269 32.2682Z" fill="#34ebab"/>
<path d="M12.9127 40.2998C12.3341 38.9981 12.1178 37.5642 12.2868 36.1497C12.4558 34.7352 13.0037 33.3926 13.8727 32.2638L19.5337 24.0068H15.2337L8.87269 32.2678C8.0037 33.3966 7.45577 34.7392 7.28679 36.1537C7.11781 37.5682 7.33406 39.0021 7.91269 40.3038V40.3038C8.53386 41.7016 9.54713 42.8893 10.8297 43.7228C12.1123 44.5563 13.6091 44.9999 15.1387 44.9998H20.1387C18.6086 44.9996 17.1115 44.5554 15.8289 43.7211C14.5463 42.8869 13.5333 41.6984 12.9127 40.2998V40.2998Z" fill="#34ebab"/>
<path d="M31 40C32.6569 40 34 38.6569 34 37C34 35.3431 32.6569 34 31 34C29.3431 34 28 35.3431 28 37C28 38.6569 29.3431 40 31 40Z" fill="#EAEFF0"/>
<path d="M23 32C24.1046 32 25 31.1046 25 30C25 28.8954 24.1046 28 23 28C21.8954 28 21 28.8954 21 30C21 31.1046 21.8954 32 23 32Z" fill="#EAEFF0"/>
<path d="M16 38C17.1046 38 18 37.1046 18 36C18 34.8954 17.1046 34 16 34C14.8954 34 14 34.8954 14 36C14 37.1046 14.8954 38 16 38Z" fill="#EAEFF0"/>
<path d="M39.9189 31.658L31.6189 20.883C31.2173 20.3571 30.9998 19.7137 30.9999 19.052V7.81601C31.6666 7.58118 32.2287 7.11799 32.5866 6.50847C32.9445 5.89895 33.0751 5.18243 32.9553 4.48583C32.8355 3.78922 32.4731 3.15748 31.9322 2.7025C31.3912 2.24752 30.7067 1.99867 29.9999 2.00001H17.9999C17.2931 1.99867 16.6086 2.24752 16.0677 2.7025C15.5268 3.15748 15.1643 3.78922 15.0445 4.48583C14.9248 5.18243 15.0554 5.89895 15.4133 6.50847C15.7712 7.11799 16.3332 7.58118 16.9999 7.81601V19.052C16.9989 19.7142 16.78 20.3576 16.3769 20.883L8.07692 31.658C7.06178 32.9766 6.43631 34.5533 6.27139 36.2092C6.10648 37.8651 6.40871 39.5342 7.14384 41.0271C7.87897 42.5201 9.0176 43.7772 10.4307 44.6562C11.8438 45.5351 13.4748 46.0006 15.1389 46H32.8609C34.5247 45.9999 36.1552 45.5338 37.5677 44.6546C38.9802 43.7754 40.1182 42.5181 40.8529 41.0253C41.5875 39.5325 41.8894 37.8638 41.7244 36.2082C41.5593 34.5526 40.9339 32.9764 39.9189 31.658ZM17.9999 4.00001H29.9999C30.2651 4.00001 30.5195 4.10536 30.707 4.2929C30.8946 4.48044 30.9999 4.73479 30.9999 5.00001C30.9999 5.26522 30.8946 5.51958 30.707 5.70711C30.5195 5.89465 30.2651 6.00001 29.9999 6.00001H28.9999C28.7347 6.00001 28.4804 6.10536 28.2928 6.2929C28.1053 6.48044 27.9999 6.73479 27.9999 7.00001C27.9999 7.26522 28.1053 7.51958 28.2928 7.70711C28.4804 7.89465 28.7347 8.00001 28.9999 8.00001V19.052C29.0028 20.1543 29.3675 21.2251 30.0379 22.1L30.7379 23.008H17.2619L17.9619 22.1C18.4326 21.4818 18.7536 20.7631 18.8999 20H20.9999C21.2651 20 21.5195 19.8946 21.707 19.7071C21.8946 19.5196 21.9999 19.2652 21.9999 19C21.9999 18.7348 21.8946 18.4804 21.707 18.2929C21.5195 18.1054 21.2651 18 20.9999 18H18.9999V16H20.9999C21.2651 16 21.5195 15.8946 21.707 15.7071C21.8946 15.5196 21.9999 15.2652 21.9999 15C21.9999 14.7348 21.8946 14.4804 21.707 14.2929C21.5195 14.1054 21.2651 14 20.9999 14H18.9999V12H20.9999C21.2651 12 21.5195 11.8946 21.707 11.7071C21.8946 11.5196 21.9999 11.2652 21.9999 11C21.9999 10.7348 21.8946 10.4804 21.707 10.2929C21.5195 10.1054 21.2651 10 20.9999 10H18.9999V8.00001H23.9999C24.2651 8.00001 24.5195 7.89465 24.707 7.70711C24.8946 7.51958 24.9999 7.26522 24.9999 7.00001C24.9999 6.73479 24.8946 6.48044 24.707 6.2929C24.5195 6.10536 24.2651 6.00001 23.9999 6.00001H17.9999C17.7347 6.00001 17.4804 5.89465 17.2928 5.70711C17.1053 5.51958 16.9999 5.26522 16.9999 5.00001C16.9999 4.73479 17.1053 4.48044 17.2928 4.2929C17.4804 4.10536 17.7347 4.00001 17.9999 4.00001V4.00001ZM39.1739 39.9C38.6302 41.1202 37.7446 42.1568 36.6243 42.8845C35.504 43.6121 34.1968 43.9995 32.8609 44H15.1389C13.8487 43.9999 12.5843 43.6384 11.489 42.9565C10.3937 42.2747 9.51121 41.2997 8.94155 40.1421C8.37189 38.9844 8.13781 37.6904 8.26583 36.4065C8.39386 35.1227 8.87887 33.9004 9.66593 32.878L15.7219 25.011H32.2779L38.3339 32.878C39.0944 33.8638 39.5741 35.037 39.722 36.2732C39.8698 37.5094 39.6805 38.7627 39.1739 39.9Z" fill="black"/>
<path d="M31 33C30.2089 33 29.4355 33.2346 28.7777 33.6741C28.1199 34.1136 27.6072 34.7384 27.3045 35.4693C27.0017 36.2002 26.9225 37.0044 27.0769 37.7804C27.2312 38.5563 27.6122 39.269 28.1716 39.8284C28.731 40.3878 29.4437 40.7688 30.2196 40.9231C30.9956 41.0775 31.7998 40.9983 32.5307 40.6955C33.2616 40.3928 33.8864 39.8801 34.3259 39.2223C34.7654 38.5645 35 37.7911 35 37C35 35.9391 34.5786 34.9217 33.8284 34.1716C33.0783 33.4214 32.0609 33 31 33V33ZM31 39C30.6044 39 30.2178 38.8827 29.8889 38.6629C29.56 38.4432 29.3036 38.1308 29.1522 37.7654C29.0009 37.3999 28.9613 36.9978 29.0384 36.6098C29.1156 36.2219 29.3061 35.8655 29.5858 35.5858C29.8655 35.3061 30.2219 35.1156 30.6098 35.0384C30.9978 34.9613 31.3999 35.0009 31.7654 35.1522C32.1308 35.3036 32.4432 35.56 32.6629 35.8889C32.8827 36.2178 33 36.6044 33 37C33 37.5304 32.7893 38.0391 32.4142 38.4142C32.0391 38.7893 31.5304 39 31 39Z" fill="black"/>
<path d="M23 27C22.4067 27 21.8266 27.1759 21.3333 27.5056C20.8399 27.8352 20.4554 28.3038 20.2284 28.8519C20.0013 29.4001 19.9419 30.0033 20.0576 30.5853C20.1734 31.1672 20.4591 31.7018 20.8787 32.1213C21.2982 32.5409 21.8328 32.8266 22.4147 32.9424C22.9967 33.0581 23.5999 32.9987 24.1481 32.7716C24.6962 32.5446 25.1648 32.1601 25.4944 31.6667C25.8241 31.1734 26 30.5933 26 30C26 29.2044 25.6839 28.4413 25.1213 27.8787C24.5587 27.3161 23.7957 27 23 27ZM23 31C22.8022 31 22.6089 30.9414 22.4444 30.8315C22.28 30.7216 22.1518 30.5654 22.0761 30.3827C22.0004 30.2 21.9806 29.9989 22.0192 29.8049C22.0578 29.6109 22.153 29.4327 22.2929 29.2929C22.4327 29.153 22.6109 29.0578 22.8049 29.0192C22.9989 28.9806 23.2 29.0004 23.3827 29.0761C23.5654 29.1518 23.7216 29.28 23.8315 29.4444C23.9414 29.6089 24 29.8022 24 30C24 30.2652 23.8946 30.5196 23.7071 30.7071C23.5196 30.8946 23.2652 31 23 31Z" fill="black"/>
<path d="M16 33C15.4067 33 14.8266 33.1759 14.3333 33.5056C13.8399 33.8352 13.4554 34.3038 13.2284 34.852C13.0013 35.4001 12.9419 36.0033 13.0576 36.5853C13.1734 37.1672 13.4591 37.7018 13.8787 38.1213C14.2982 38.5409 14.8328 38.8266 15.4147 38.9424C15.9967 39.0581 16.5999 38.9987 17.1481 38.7716C17.6962 38.5446 18.1648 38.1601 18.4944 37.6667C18.8241 37.1734 19 36.5933 19 36C19 35.2044 18.6839 34.4413 18.1213 33.8787C17.5587 33.3161 16.7957 33 16 33ZM16 37C15.8022 37 15.6089 36.9414 15.4444 36.8315C15.28 36.7216 15.1518 36.5654 15.0761 36.3827C15.0004 36.2 14.9806 35.9989 15.0192 35.8049C15.0578 35.6109 15.153 35.4327 15.2929 35.2929C15.4327 35.153 15.6109 35.0578 15.8049 35.0192C15.9989 34.9806 16.2 35.0004 16.3827 35.0761C16.5654 35.1518 16.7216 35.28 16.8315 35.4444C16.9414 35.6089 17 35.8022 17 36C17 36.2652 16.8946 36.5196 16.7071 36.7071C16.5196 36.8946 16.2652 37 16 37Z" fill="black"/>
</svg>
